<svg id="Layer_2" height="512" viewBox="0 0 512 512" width="512" xmlns="http://www.w3.org/2000/svg" xmlns:xlink="http://www.w3.org/1999/xlink" data-name="Layer 2"><linearGradient id="linear-gradient" gradientUnits="userSpaceOnUse" x1="43.93" x2="468.07" y1="43.93" y2="468.07"><stop offset="0" stop-color="#ff386a"/><stop offset="1" stop-color="#ab2343"/></linearGradient><g id="Icon"><g id="_31" data-name="31"><rect id="Background" fill="url(#linear-gradient)" height="512" rx="150" width="512"/><path id="_31-2" d="m290.01 305.05c0 10.14-1.94 19.65-5.81 28.54-3.88 8.89-9.14 16.66-15.81 23.33-6.66 6.67-14.44 11.94-23.33 15.81-8.89 3.88-18.4 5.81-28.54 5.81h-98.09v-49.05h98.1c3.42 0 6.61-.62 9.57-1.88 2.96-1.25 5.55-2.99 7.78-5.21 2.22-2.22 3.96-4.81 5.21-7.78 1.25-2.96 1.88-6.15 1.88-9.57s-.63-6.61-1.88-9.57-2.99-5.55-5.21-7.78c-2.22-2.22-4.81-3.96-7.78-5.21-2.96-1.25-6.15-1.88-9.57-1.88h-66.82v-49.05h66.82c3.42 0 6.61-.62 9.57-1.88 2.96-1.25 5.55-2.99 7.78-5.21 2.22-2.22 3.96-4.84 5.21-7.86s1.88-6.24 1.88-9.66-.63-6.61-1.88-9.57-2.99-5.55-5.21-7.78c-2.22-2.22-4.81-3.96-7.78-5.21-2.96-1.25-6.15-1.88-9.57-1.88h-98.1v-49.05h98.1c10.14 0 19.65 1.94 28.54 5.81 8.89 3.88 16.66 9.14 23.33 15.81 6.67 6.66 11.93 14.44 15.81 23.33 3.87 8.89 5.81 18.4 5.81 28.54 0 9-1.65 17.75-4.96 26.23-3.31 8.49-7.98 16.09-14.01 22.81 6.04 6.72 10.71 14.33 14.01 22.82s4.96 17.23 4.96 26.23zm103.56 73.49h-49.05v-196.03h-24.44v-49.05h73.49v245.07z" fill="#fff" data-name="31"/></g></g></svg>