<svg fill="none" height="512" viewBox="0 0 24 24" width="512" xmlns="http://www.w3.org/2000/svg"><g clip-rule="evenodd" fill="rgb(0,0,0)" fill-rule="evenodd"><path d="m3 14c0-.5523.44772-1 1-1h12c1.6569 0 3-1.3431 3-3v-4c0-.55229.4477-1 1-1s1 .44771 1 1v4c0 2.7614-2.2386 5-5 5h-12c-.55228 0-1-.4477-1-1z"/><path d="m3.29289 14.7071c-.39052-.3905-.39052-1.0237 0-1.4142l4-4.00001c.39053-.39052 1.02369-.39052 1.41422 0 .39052.39053.39052 1.02371 0 1.41421l-3.2929 3.2929 3.2929 3.2929c.39052.3905.39052 1.0237 0 1.4142-.39053.3905-1.02369.3905-1.41422 0z"/></g></svg>