<svg id="Layer_2" height="512" viewBox="0 0 24 24" width="512" xmlns="http://www.w3.org/2000/svg"><g fill="rgb(0,0,0)"><path d="m18.3276 1.9893h-12.6552c-2.0308 0-3.6831 1.6523-3.6831 3.6831v1.4072c0 .5522.4478 1 1 1s1-.4478 1-1v-1.4072c0-.9282.7549-1.6831 1.6831-1.6831h12.6553c.9282 0 1.6831.7549 1.6831 1.6831v12.6553c0 .9282-.7549 1.6831-1.6831 1.6831h-12.6553c-.9282 0-1.6831-.7549-1.6831-1.6831v-1.3955c0-.5522-.4478-1-1-1s-1 .4478-1 1v1.3955c0 2.0308 1.6523 3.6831 3.6831 3.6831h12.6553c2.0308 0 3.6831-1.6523 3.6831-3.6831v-12.6553c-.0001-2.0308-1.6524-3.6831-3.6832-3.6831z"/><path d="m2.042 12.0034c0 .5522.4478 1 1 1h8.5474l-1.293 1.293c-.3906.3906-.3906 1.0234 0 1.4141.1953.1953.4512.293.707.293s.5117-.0977.707-.293l2.9997-2.9997c.0923-.0922.1653-.2028.2161-.3252.1011-.2445.1011-.5198 0-.7643-.0507-.1224-.1238-.233-.2161-.3252l-2.9997-2.9997c-.3906-.3906-1.0234-.3906-1.4141 0s-.3906 1.0234 0 1.4141l1.293 1.293h-8.5473c-.5523-.0001-1 .4477-1 .9999z"/></g></svg>