<svg id="Layer_1" enable-background="new 0 0 256 256" height="512" viewBox="0 0 256 256" width="512" xmlns="http://www.w3.org/2000/svg"><g transform="matrix(2.81 0 0 2.81 1.407 1.407)"><path d="m45.1-.5c-25.2 0-45.6 20.4-45.6 45.6s20.4 45.6 45.6 45.6 45.6-20.4 45.6-45.6-20.5-45.6-45.6-45.6zm4.1 69.2c-1.2 1.1-2.7 1.6-4.5 1.6s-3.3-.5-4.5-1.6-1.8-2.5-1.8-4.1c0-1.7.6-3.1 1.8-4.1 1.2-1.1 2.7-1.6 4.5-1.6s3.3.5 4.5 1.6 1.8 2.5 1.8 4.1c0 1.7-.6 3.1-1.8 4.1zm10.7-30.3c-.7 1.5-2 3.1-3.6 4.7l-3.9 3.6c-1.1 1.1-1.9 2.2-2.3 3.3s-.7 2.5-.7 4.3h-9.7c0-3.3.4-5.9 1.1-7.8s2-3.6 3.6-5c1.7-1.4 3-2.7 3.8-3.9.9-1.2 1.3-2.5 1.3-3.9 0-3.4-1.5-5.1-4.4-5.1-1.4 0-2.5.5-3.3 1.5s-1.3 2.3-1.3 4h-11.5c0-4.5 1.5-8.1 4.3-10.6s6.8-3.8 11.8-3.8c5.1 0 9 1.2 11.8 3.5s4.2 5.7 4.2 10c0 1.9-.4 3.6-1.2 5.2z"/></g></svg>