<svg id="Layer_1" enable-background="new 0 0 512 512" height="512" viewBox="0 0 512 512" width="512" xmlns="http://www.w3.org/2000/svg"><path clip-rule="evenodd" d="m470.006 301.042c-16.074-9.26-26.057-26.511-26.057-45.041 0-18.521 9.982-35.772 26.01-45.023 16.45-9.457 23.292-29.107 16.262-46.719-8.811-22.247-20.808-43.026-35.57-61.768-11.763-14.922-32.196-18.83-48.645-9.312-16.027 9.312-35.992 9.34-52.066.07-16.028-9.27-25.963-26.549-25.916-45.112 0-18.99-13.591-34.75-32.383-37.468-23.62-3.421-47.614-3.402-71.328.07-18.746 2.737-32.336 18.488-32.29 37.44 0 18.54-9.936 35.809-25.963 45.07-16.075 9.26-35.992 9.241-52.066-.061-16.449-9.518-36.882-5.591-48.645 9.331-7.311 9.298-14.06 19.238-20.011 29.562-5.952 10.306-11.154 21.108-15.559 32.088-7.077 17.64-.234 37.318 16.215 46.799 16.075 9.251 26.057 26.511 26.057 45.032s-9.982 35.767-26.01 45.032c-16.449 9.458-23.291 29.098-16.262 46.705 8.811 22.261 20.808 43.041 35.57 61.772 11.763 14.922 32.196 18.83 48.645 9.312 16.028-9.312 35.992-9.331 52.066-.07 16.027 9.27 25.963 26.549 25.963 45.112-.047 18.985 13.59 34.745 32.336 37.469 11.763 1.701 23.573 2.549 35.382 2.549 11.998 0 23.995-.872 35.945-2.62 18.746-2.742 32.336-18.479 32.336-37.431-.047-18.549 9.888-35.819 25.916-45.079 16.074-9.26 35.992-9.241 52.066.061 16.449 9.518 36.882 5.6 48.645-9.331 7.311-9.303 14.06-19.243 20.011-29.553 5.905-10.305 11.201-21.108 15.559-32.097 7.079-17.64.237-37.323-16.213-46.789zm-150.247-8.22c-9.795 17.031-25.682 29.22-44.708 34.31-18.98 5.089-38.851 2.479-55.863-7.363-35.148-20.302-47.239-65.418-26.947-100.59 13.591-23.592 38.429-36.798 63.876-36.798 12.513 0 25.12 3.168 36.695 9.851 35.148 20.297 47.239 65.427 26.947 100.59z" fill-rule="evenodd"/></svg>